<?xml version="1.0" encoding="UTF-8" standalone="no"?>
<!-- Created with Inkscape (http://www.inkscape.org/) -->

<svg
   width="275.7168"
   height="50.611938"
   viewBox="0 0 275.7168 50.611938"
   version="1.1"
   id="svg1"
   xml:space="preserve"
   inkscape:version="1.4.2 (ebf0e940d0, 2025-05-08)"
   sodipodi:docname="BO text v3.svg"
   xmlns:inkscape="http://www.inkscape.org/namespaces/inkscape"
   xmlns:sodipodi="http://sodipodi.sourceforge.net/DTD/sodipodi-0.dtd"
   xmlns="http://www.w3.org/2000/svg"
   xmlns:svg="http://www.w3.org/2000/svg"><sodipodi:namedview
     id="namedview1"
     pagecolor="#ffffff"
     bordercolor="#000000"
     borderopacity="0.25"
     inkscape:showpageshadow="2"
     inkscape:pageopacity="0.0"
     inkscape:pagecheckerboard="0"
     inkscape:deskcolor="#d1d1d1"
     inkscape:document-units="px"
     inkscape:zoom="3.1950391"
     inkscape:cx="141.31283"
     inkscape:cy="17.840157"
     inkscape:window-width="1671"
     inkscape:window-height="1043"
     inkscape:window-x="0"
     inkscape:window-y="0"
     inkscape:window-maximized="1"
     inkscape:current-layer="text1" /><defs
     id="defs1" /><g
     inkscape:label="Layer 1"
     inkscape:groupmode="layer"
     id="layer1"
     transform="translate(-304.27344,-228.39648)"><g
       id="text1"
       style="opacity:1"><path
         style="font-weight:600;font-size:64px;line-height:0;font-family:Montserrat;-inkscape-font-specification:'Montserrat Semi-Bold';letter-spacing:-2px;baseline-shift:baseline;display:inline;overflow:visible;vector-effect:none;enable-background:accumulate;stop-color:#000000;stop-opacity:1"
         d="m 304.65235,278.18182 v -44.8 h 20.992 q 8.064,0 12.288,3.2 4.224,3.136 4.224,8.448 0,3.584 -1.664,6.144 -1.664,2.496 -4.48,3.904 -2.752,1.344 -6.016,1.344 l 1.152,-2.304 q 3.776,0 6.784,1.408 3.008,1.344 4.736,3.968 1.792,2.624 1.792,6.528 0,5.76 -4.416,8.96 -4.416,3.2 -13.12,3.2 z m 8.32,-6.528 h 13.44 q 4.672,0 7.168,-1.536 2.496,-1.536 2.496,-4.928 0,-3.328 -2.496,-4.864 -2.496,-1.6 -7.168,-1.6 h -14.08 v -6.464 h 12.416 q 4.352,0 6.656,-1.536 2.368,-1.536 2.368,-4.608 0,-3.136 -2.368,-4.672 -2.304,-1.536 -6.656,-1.536 h -11.776 z m 52.97598,6.976 q -5.248,0 -9.344,-2.24 -4.096,-2.304 -6.464,-6.272 -2.368,-3.968 -2.368,-9.024 0,-5.12 2.368,-9.024 2.368,-3.968 6.464,-6.208 4.096,-2.24 9.344,-2.24 5.312,0 9.408,2.24 4.16,2.24 6.464,6.144 2.368,3.904 2.368,9.088 0,5.056 -2.368,9.024 -2.304,3.968 -6.464,6.272 -4.096,2.24 -9.408,2.24 z m 0,-6.848 q 2.944,0 5.248,-1.28 2.304,-1.28 3.584,-3.712 1.344,-2.432 1.344,-5.696 0,-3.328 -1.344,-5.696 -1.28,-2.432 -3.584,-3.712 -2.304,-1.28 -5.184,-1.28 -2.944,0 -5.248,1.28 -2.24,1.28 -3.584,3.712 -1.344,2.368 -1.344,5.696 0,3.264 1.344,5.696 1.344,2.432 3.584,3.712 2.304,1.28 5.184,1.28 z m 44.52559,6.4 v -6.912 l -0.448,-1.472 v -12.096 q 0,-3.52 -2.112,-5.44 -2.112,-1.984 -6.4,-1.984 -2.88,0 -5.696,0.896 -2.752,0.896 -4.672,2.496 l -3.136,-5.824 q 2.752,-2.112 6.528,-3.136 3.84,-1.088 7.936,-1.088 7.424,0 11.456,3.584 4.096,3.52 4.096,10.944 v 20.032 z m -10.752,0.448 q -3.84,0 -6.72,-1.28 -2.88,-1.344 -4.48,-3.648 -1.536,-2.368 -1.536,-5.312 0,-2.88 1.344,-5.184 1.408,-2.304 4.544,-3.648 3.136,-1.344 8.32,-1.344 h 9.92 v 5.312 h -9.344 q -4.096,0 -5.504,1.344 -1.408,1.28 -1.408,3.2 0,2.176 1.728,3.456 1.728,1.28 4.8,1.28 2.944,0 5.248,-1.344 2.368,-1.344 3.392,-3.968 l 1.344,4.8 q -1.152,3.008 -4.16,4.672 -2.944,1.664 -7.488,1.664 z m 26.54402,-0.448 v -34.176 h 7.616 v 9.408 l -0.896,-2.752 q 1.536,-3.456 4.8,-5.248 3.328,-1.792 8.256,-1.792 v 7.616 q -0.512,-0.128 -0.96,-0.128 -0.448,-0.064 -0.896,-0.064 -4.544,0 -7.232,2.688 -2.688,2.624 -2.688,7.872 v 16.576 z m 38.68996,0.448 q -4.928,0 -8.896,-2.176 -3.904,-2.24 -6.144,-6.144 -2.24,-3.904 -2.24,-9.216 0,-5.312 2.24,-9.216 2.24,-3.904 6.144,-6.08 3.968,-2.176 8.896,-2.176 4.288,0 7.68,1.92 3.392,1.856 5.376,5.696 1.984,3.84 1.984,9.856 0,5.952 -1.92,9.856 -1.92,3.84 -5.312,5.76 -3.392,1.92 -7.808,1.92 z m 0.96,-6.848 q 2.88,0 5.12,-1.28 2.304,-1.28 3.648,-3.712 1.408,-2.432 1.408,-5.696 0,-3.328 -1.408,-5.696 -1.344,-2.432 -3.648,-3.712 -2.24,-1.28 -5.12,-1.28 -2.88,0 -5.184,1.28 -2.24,1.28 -3.648,3.712 -1.344,2.368 -1.344,5.696 0,3.264 1.344,5.696 1.408,2.432 3.648,3.712 2.304,1.28 5.184,1.28 z m 10.368,6.4 v -8.064 l 0.32,-9.088 -0.64,-9.088 v -21.248 h 7.936 v 47.488 z m 78.83178,0 v -34.176 h 8 v 34.176 z m 4.032,-39.808 q -2.24,0 -3.712,-1.408 -1.408,-1.408 -1.408,-3.392 0,-2.048 1.408,-3.392 1.472,-1.408 3.712,-1.408 2.24,0 3.648,1.344 1.472,1.28 1.472,3.264 0,2.112 -1.408,3.584 -1.408,1.408 -3.712,1.408 z m 12.46397,39.808 v -47.488 h 8 v 47.488 z"
         id="path5" /><path
         style="font-weight:600;font-size:64px;line-height:0;font-family:Montserrat;-inkscape-font-specification:'Montserrat Semi-Bold';letter-spacing:-2px;baseline-shift:baseline;display:inline;overflow:visible;vector-effect:none;enable-background:accumulate;stop-color:#000000;stop-opacity:1"
         d="m 559.14844,228.39648 c -1.57253,0 -2.92408,0.50686 -3.97461,1.51172 -1.00803,0.96221 -1.52344,2.21407 -1.52344,3.66602 0,1.41207 0.51615,2.65677 1.51758,3.6582 l 0.004,0.004 0.002,0.002 c 1.05053,1.00486 2.40208,1.51367 3.97461,1.51367 1.61299,0 2.96696,-0.50797 3.97851,-1.51953 l 0.004,-0.002 0.002,-0.004 c 1.00108,-1.04658 1.51367,-2.35371 1.51367,-3.8457 0,-1.41364 -0.54896,-2.62675 -1.59961,-3.54297 -1.01003,-0.95979 -2.33385,-1.44141 -3.89843,-1.44141 z m 0,0.75586 c 1.41774,0 2.52046,0.41141 3.38672,1.23828 l 0.006,0.006 0.006,0.006 c 0.90837,0.78989 1.34375,1.74932 1.34375,2.97852 0,1.32241 -0.42861,2.40493 -1.30273,3.32031 -0.86534,0.86368 -1.98221,1.29492 -3.43945,1.29492 -1.41246,0 -2.53572,-0.4304 -3.44727,-1.30078 -0.87367,-0.87515 -1.29492,-1.88937 -1.29492,-3.12109 0,-1.27872 0.42171,-2.28935 1.29102,-3.11914 0.91213,-0.87247 2.03702,-1.30274 3.45117,-1.30274 z m -83.5625,1.16407 v 17.03711 c -0.84043,-0.82938 -1.73948,-1.57897 -2.76953,-2.14258 -2.31944,-1.3116 -4.9485,-1.9668 -7.86133,-1.9668 -3.34096,0 -6.373,0.74027 -9.07617,2.22266 h -0.002 -0.002 c -2.65978,1.4825 -4.76169,3.56407 -6.28711,6.22265 -1.53016,2.66685 -2.28906,5.80984 -2.28906,9.4043 0,3.59446 0.7589,6.73745 2.28906,9.4043 1.52497,2.65781 3.62539,4.75823 6.2832,6.2832 l 0.004,0.002 0.004,0.002 c 2.70317,1.48238 5.73521,2.22265 9.07617,2.22265 2.99877,0 5.67162,-0.65411 7.99414,-1.96875 1.10534,-0.62566 2.07965,-1.42531 2.95703,-2.34765 v 3.86914 h 8.37109 V 230.3165 Z m 95.64843,0 v 48.24414 h 8.75586 v -48.24414 z m -94.89257,0.75586 h 7.17968 v 46.73242 h -6.85937 v -4.11524 c 0.63102,-0.79811 1.26411,-1.59463 1.75195,-2.57031 v -0.002 h 0.002 c 1.31356,-2.67093 1.95703,-6.0148 1.95703,-10.02344 0,-4.05221 -0.66578,-7.39779 -2.02539,-10.0293 -0.56529,-1.0941 -1.26785,-2.00603 -2.00586,-2.86914 z m 95.64843,0 h 7.24414 v 46.73242 h -7.24414 z m -267.71679,1.93164 v 45.55664 h 22.65039 c 5.84898,0 10.30226,-1.07088 13.34179,-3.27344 3.03125,-2.19656 4.57227,-5.32904 4.57227,-9.26563 0,-2.66049 -0.61352,-4.91881 -1.85742,-6.74023 -1.19085,-1.8064 -2.83195,-3.17803 -4.89453,-4.09961 -0.32543,-0.15216 -0.69881,-0.21381 -1.03711,-0.3418 1.50342,-0.91076 2.80255,-2.02413 3.75781,-3.45703 l 0.002,-0.002 v -0.002 c 1.15326,-1.77424 1.72657,-3.90179 1.72657,-6.34961 0,-3.64055 -1.47852,-6.59664 -4.375,-8.74805 l -0.002,-0.002 c -2.90819,-2.20218 -7.08896,-3.27539 -12.51367,-3.27539 z m 0.75781,0.75586 h 20.61328 c 5.32601,0 9.33683,1.05962 12.06055,3.12304 v 0.002 h 0.002 c 2.73399,2.02978 4.07227,4.70337 4.07227,8.14453 0,2.33084 -0.53811,4.30036 -1.60352,5.93945 -1.00683,1.509 -2.36484,2.67744 -4.03125,3.57227 -1.55663,-0.47638 -3.19219,-0.80079 -4.99609,-0.80079 h -0.23438 l -1.52929,3.0586 h 0.61132 c 2.22788,0 4.29403,-0.459 6.18164,-1.38086 l 0.002,-0.002 h 0.002 c 0.0269,-0.0135 0.0455,-0.0352 0.0723,-0.0488 0.50489,0.16839 1.04284,0.27778 1.51757,0.5 l 0.004,0.002 0.002,0.002 c 1.94631,0.86963 3.46328,2.14012 4.57618,3.83008 v 0.004 l 0.002,0.002 c 1.14543,1.67725 1.72656,3.76962 1.72656,6.31445 0,3.74342 -1.40301,6.58419 -4.25976,8.6543 -2.84847,2.0641 -7.14209,3.12891 -12.89844,3.12891 h -21.89258 z m 7.5625,5.77148 v 12.35352 h -0.63867 v 7.21875 h 0.63867 v 12.92773 h 13.81836 c 3.15609,0 5.61354,-0.51263 7.36719,-1.5918 1.76976,-1.08908 2.67578,-2.89596 2.67578,-5.25 0,-2.31206 -0.90771,-4.09559 -2.67383,-5.18359 -1.75398,-1.12301 -4.21335,-1.6582 -7.36914,-1.6582 h -13.0625 v -5.70704 h 11.39844 c 2.94377,10e-6 5.23414,-0.51425 6.86132,-1.59765 1.67518,-1.0866 2.54102,-2.78067 2.54102,-4.92578 0,-2.1858 -0.86383,-3.90038 -2.54102,-4.98828 -1.62718,-1.0834 -3.91754,-1.59766 -6.86132,-1.59766 z m 0.75586,0.75586 h 11.39844 c 2.85687,0 5.00265,0.50958 6.44726,1.47266 l 0.002,0.002 0.002,0.002 c 1.48014,0.9601 2.19531,2.35798 2.19531,4.35352 0,1.95088 -0.71316,3.32962 -2.19531,4.29101 l -0.002,0.002 -0.002,0.002 c -1.44461,0.96308 -3.59039,1.47266 -6.44726,1.47266 h -11.39844 z m 52.59961,2.95703 c -3.55244,0 -6.73511,0.75922 -9.52539,2.28516 -2.7862,1.5237 -4.99565,3.64685 -6.60742,6.34765 v -0.004 c -1.61667,2.6653 -2.42188,5.7491 -2.42188,9.2207 0,3.42967 0.80701,6.5108 2.42188,9.2168 1.61131,2.70003 3.81916,4.842 6.60351,6.4082 l 0.002,0.002 h 0.002 c 2.79028,1.52594 5.97295,2.28711 9.52539,2.28711 3.59446,0 6.79688,-0.76077 9.58789,-2.28711 h 0.002 c 2.8266,-1.5655 5.03596,-3.70865 6.60547,-6.41015 l 0.002,-0.004 c 1.61337,-2.70509 2.41993,-5.78481 2.41993,-9.21289 0,-3.51355 -0.80669,-6.61711 -2.42383,-9.2832 -1.57008,-2.65844 -3.77948,-4.75925 -6.60547,-6.28125 h -0.002 c -2.79064,-1.52576 -5.99216,-2.28516 -9.58594,-2.28516 z m 36.52539,0 c -2.76282,0 -5.44239,0.36732 -8.03516,1.10156 -2.55829,0.69378 -4.78266,1.76031 -6.66015,3.20117 l -0.25391,0.19532 3.50781,6.51367 0.35547,-0.29492 c 1.23843,-1.03203 2.75058,-1.8429 4.54688,-2.42774 1.84062,-0.58524 3.6986,-0.87695 5.57812,-0.87695 2.80038,0 4.82566,0.64559 6.14063,1.88086 l 0.004,0.002 0.002,0.002 c 1.32293,1.20266 1.98828,2.88908 1.98828,5.16015 v 0.13477 h -8.45508 c -3.48866,0 -6.30878,0.44929 -8.46875,1.375 -2.14372,0.91873 -3.73008,2.18224 -4.7168,3.79687 l -0.002,0.004 -0.002,0.004 c -0.93054,1.59521 -1.39649,3.39621 -1.39649,5.375 0,2.0284 0.53474,3.87892 1.59766,5.51758 l 0.004,0.004 0.002,0.006 c 1.10763,1.59498 2.66016,2.85378 4.63086,3.77344 l 0.004,0.002 0.002,0.002 c 1.97697,0.87866 4.273,1.3125 6.875,1.3125 3.07365,0 5.63531,-0.56199 7.66992,-1.71094 1.07301,-0.59358 1.96538,-1.33099 2.70312,-2.18164 v 3.44532 h 8.3086 V 258.151 c 0,-5.01884 -1.39824,-8.7982 -4.22852,-11.23047 -2.77379,-2.46274 -6.69416,-3.67578 -11.70117,-3.67578 z m 43.56641,0 c -3.33115,0 -6.14637,0.60435 -8.4336,1.83594 l -0.002,0.002 h -0.002 c -1.35146,0.74198 -2.41917,1.76654 -3.34375,2.92774 V 243.627 h -8.3711 v 34.9336 h 8.75586 v -16.95508 c 0,-3.43414 0.87234,-5.94021 2.57422,-7.60156 v -0.002 h 0.002 c 1.71671,-1.7167 4.01004,-2.57812 6.96485,-2.57812 0.28067,0 0.56254,0.0204 0.84375,0.0605 l 0.0254,0.004 h 0.0273 c 0.26267,0 0.55297,0.0362 0.86914,0.11524 l 0.46875,0.11914 v -8.47852 z m 108.69726,0.38281 v 34.9336 h 8.75586 v -34.9336 z M 365.94922,244 c 3.48821,0 6.55624,0.73303 9.22656,2.19336 l 0.002,0.002 c 2.71828,1.46369 4.81493,3.45779 6.31641,6.00196 l 0.002,0.002 0.002,0.002 c 1.54019,2.53924 2.3125,5.49413 2.3125,8.89258 0,3.31166 -0.77199,6.24541 -2.31446,8.83008 l -0.002,0.002 v 0.002 c -1.50209,2.58693 -3.60029,4.62517 -6.31836,6.13086 -2.67032,1.46034 -5.73835,2.19336 -9.22656,2.19336 -3.44489,0 -6.49302,-0.73263 -9.16406,-2.19336 -2.67515,-1.50559 -4.77504,-3.54538 -6.32032,-6.13476 -1.54246,-2.58467 -2.31445,-5.51842 -2.31445,-8.83008 0,-3.35507 0.77183,-6.2881 2.3125,-8.82813 h 0.002 v -0.002 c 1.54557,-2.58986 3.64518,-4.60734 6.32032,-6.07031 C 359.4562,244.73263 362.50433,244 365.94922,244 Z m 36.52539,0 c 4.88851,0 8.60317,1.17547 11.20508,3.48828 l 0.002,0.002 0.002,0.002 c 2.63106,2.26106 3.96485,5.77838 3.96485,10.6582 v 19.6543 h -6.79688 v -3.9375 c 0.29332,-0.47767 0.6649,-0.89911 0.8711,-1.4375 l 0.0449,-0.11719 -1.36328,-4.86719 v -3.54101 h 1.08789 v -6.06836 h -1.08789 v -0.13477 c 0,-2.42005 -0.74209,-4.35769 -2.23243,-5.71484 l -0.002,-0.002 c -1.50102,-1.40886 -3.7405,-2.08398 -6.65625,-2.08398 -1.95919,0 -3.89774,0.30544 -5.81055,0.91406 h -0.002 c -1.71105,0.55709 -3.1664,1.34356 -4.41797,2.31055 l -2.77148,-5.14453 c 1.73883,-1.28082 3.76288,-2.26568 6.125,-2.90625 h 0.002 0.002 C 397.16671,244.35849 399.77741,244 402.47461,244 Z m 62.48047,0 c 2.80225,0 5.29222,0.62473 7.49414,1.87109 l 0.002,0.002 h 0.004 c 1.18475,0.64826 2.21051,1.5184 3.13086,2.54297 v 3.53906 l 0.39843,5.6582 c -0.24015,-0.85812 -0.54162,-1.67671 -0.97656,-2.4082 -0.92537,-1.66996 -2.19299,-2.96219 -3.78515,-3.84766 l -0.004,-0.002 c -1.55302,-0.88651 -3.32834,-1.32813 -5.30273,-1.32813 -1.976,0 -3.77275,0.44233 -5.36719,1.32813 l -0.002,0.002 h -0.002 c -1.55324,0.88757 -2.82126,2.1799 -3.78906,3.85156 v 0.002 c -0.93352,1.64477 -1.39453,3.61327 -1.39453,5.88281 0,2.22788 0.46195,4.19492 1.39258,5.87891 l 0.002,0.004 v 0.002 c 0.9678,1.67166 2.23582,2.96399 3.78906,3.85156 l 0.002,0.002 h 0.002 c 1.59444,0.8858 3.39119,1.32813 5.36719,1.32813 1.97439,0 3.74971,-0.44162 5.30273,-1.32813 1.59553,-0.8864 2.86663,-2.17982 3.79297,-3.85351 v -0.002 c 0.50026,-0.86445 0.86107,-1.80902 1.10351,-2.82031 l -0.20898,5.95508 v 3.36328 c -0.96256,1.163 -2.03677,2.17529 -3.32813,2.90625 -2.20014,1.24536 -4.73382,1.87109 -7.62304,1.87109 -3.22904,0 -6.12385,-0.71054 -8.71094,-2.1289 h -0.002 c -2.54453,-1.46137 -4.53756,-3.45652 -5.99805,-6.00196 -1.45651,-2.53848 -2.18945,-5.53913 -2.18945,-9.02734 0,-3.48821 0.73294,-6.48886 2.18945,-9.02734 1.46098,-2.54628 3.45316,-4.51873 5.99805,-5.9375 C 458.82968,244.70996 461.72537,244 464.95508,244 Z m -19.29102,0.0371 v 6.77148 c -0.19444,-0.0285 -0.39531,-0.0761 -0.58008,-0.0762 h -0.002 c -0.29862,-0.0403 -0.59741,-0.0644 -0.89648,-0.0644 -3.10386,0 -5.63075,0.93153 -7.49805,2.79883 -1.88007,1.83729 -2.79883,4.5774 -2.79883,8.13867 v 16.19922 h -7.24414 v -33.42188 h 6.85938 v 4.79297 c -0.27825,0.45321 -0.63965,0.82886 -0.86329,1.33203 l -0.0586,0.13281 0.94141,2.89063 0.73633,-0.11719 v -4.0332 c 0.95224,-1.4857 2.11536,-2.75984 3.70898,-3.63477 h -0.004 c 2.05895,-1.10866 4.64187,-1.66118 7.69922,-1.70898 z m 109.83008,0.3457 h 7.24414 v 33.42188 h -7.24414 z M 476.3418,249.5 c 0.45589,0.62013 0.9545,1.17763 1.33398,1.91211 1.28572,2.48849 1.94141,5.71252 1.94141,9.68164 0,3.92736 -0.63443,7.15504 -1.88086,9.68945 -0.30207,0.60387 -0.71798,1.05115 -1.07422,1.58008 V 270.125 l 0.32031,-9.10156 -0.64062,-9.09571 z m -110.33008,0.52734 c -2.01744,0 -3.8359,0.44161 -5.43164,1.32813 l -0.002,0.002 h -0.002 c -1.55337,0.88764 -2.79941,2.18085 -3.72461,3.85352 -4e-4,7.1e-4 -0.002,10e-4 -0.002,0.002 -2.7e-4,4.8e-4 2.6e-4,0.001 0,0.002 -0.93211,1.64403 -1.39063,3.61106 -1.39063,5.87891 0,2.22788 0.46001,4.19492 1.39063,5.87891 0.92542,1.67456 2.17197,2.96908 3.72656,3.85742 l 0.002,0.002 h 0.002 c 1.59444,0.8858 3.39315,1.32813 5.36914,1.32813 2.01744,0 3.83395,-0.44161 5.42969,-1.32813 1.5968,-0.88711 2.84847,-2.18265 3.73242,-3.85937 0.93062,-1.68399 1.39062,-3.65103 1.39062,-5.87891 0,-2.26445 -0.45742,-4.22857 -1.38672,-5.87109 l -0.002,-0.004 c -0.88402,-1.67794 -2.13677,-2.97573 -3.73437,-3.86328 -1.59445,-0.8858 -3.3912,-1.32813 -5.36719,-1.32813 z m 67.49219,0.52149 v 0.48242 l -0.10352,-0.32031 c 0.0278,-0.0609 0.0749,-0.10205 0.10352,-0.16211 z m -67.49219,0.23437 c 1.86401,0 3.52439,0.41156 5.00195,1.23242 1.47314,0.81842 2.60911,1.99579 3.43164,3.5586 l 0.004,0.006 0.002,0.004 c 0.85848,1.51257 1.29492,3.34198 1.29492,5.50977 0,2.12412 -0.43549,3.95499 -1.29687,5.51367 l -0.002,0.004 -0.002,0.002 c -0.82253,1.56281 -1.9585,2.74018 -3.43164,3.55859 -1.47626,0.82015 -3.15656,1.23243 -5.06445,1.23243 -1.86401,0 -3.5244,-0.41156 -5.00195,-1.23243 -1.43032,-0.81824 -2.56973,-1.99772 -3.43555,-3.56445 -0.86138,-1.55868 -1.29688,-3.38955 -1.29688,-5.51367 0,-2.16779 0.43644,-3.9972 1.29493,-5.50977 v -0.002 l 0.002,-0.002 c 0.86582,-1.56673 2.00523,-2.74621 3.43555,-3.56446 l 0.004,-0.002 c 1.47535,-0.81875 3.15429,-1.23047 5.06055,-1.23047 z m 99.9043,0 c 1.864,0 3.49889,0.41176 4.93164,1.23047 l 0.002,0.002 h 0.002 c 1.47444,0.81914 2.6366,1.99858 3.50196,3.56446 l 0.002,0.006 0.004,0.006 c 0.89892,1.51181 1.35547,3.33658 1.35547,5.50195 0,2.12165 -0.45549,3.94798 -1.35742,5.50586 l -0.002,0.004 -0.002,0.004 c -0.86536,1.56588 -2.02752,2.74532 -3.50196,3.56445 h -0.002 l -0.002,0.002 c -1.43275,0.81871 -3.06764,1.23047 -4.93164,1.23047 -1.86401,0 -3.52245,-0.41156 -5,-1.23243 -1.43096,-0.81858 -2.59538,-2.00191 -3.50391,-3.57031 -4.8e-4,-8.3e-4 -10e-4,-0.001 -0.002,-0.002 -0.85865,-1.55706 -1.29297,-3.38512 -1.29297,-5.50586 0,-2.16604 0.43586,-3.99401 1.29297,-5.50586 v -0.002 c 0.90861,-1.56893 2.07457,-2.75154 3.50586,-3.57032 l 0.004,-0.002 c 1.4766,-0.81946 3.13369,-1.23047 4.9961,-1.23047 z m -134.54493,3.73438 c 1.33164,0.0158 2.5713,0.18914 3.74805,0.47461 -1.39418,0.57865 -2.88216,0.91199 -4.47656,0.98242 z m 69.82227,4.07422 h 8.45508 v 4.55664 h -7.87891 c -2.77056,0 -4.69031,0.42407 -5.76172,1.44531 -5.6e-4,5.3e-4 -0.001,10e-4 -0.002,0.002 -1.0041,0.91583 -1.52539,2.10512 -1.52539,3.47461 0,1.55072 0.64654,2.84546 1.88086,3.75977 1.23808,0.9171 2.9249,1.35351 5.02539,1.35351 2.01859,0 3.83798,-0.46274 5.43359,-1.39257 1.22796,-0.69695 2.11581,-1.7326 2.82813,-2.92579 v 0.98829 l 0.44726,1.47265 v 2.35938 c -0.76171,1.16615 -1.70817,2.19677 -3.06836,2.94922 l -0.002,0.002 h -0.002 c -1.89015,1.06834 -4.31759,1.61523 -7.30078,1.61523 -2.51801,0 -4.70338,-0.42003 -6.56641,-1.24804 -1.86171,-0.87001 -3.29242,-2.03737 -4.31641,-3.50782 l -0.002,-0.002 c -0.98412,-1.5181 -1.47461,-3.2075 -1.47461,-5.10352 0,-1.86027 0.43042,-3.51595 1.29102,-4.99218 4.3e-4,-7.4e-4 0.002,-10e-4 0.002,-0.002 0.89089,-1.45467 2.33227,-2.62007 4.36719,-3.49218 2.02136,-0.8663 4.74658,-1.3125 8.16992,-1.3125 z m 9.21094,0 h 0.33203 v 4.55664 h -0.33203 z m -97.05469,0.51172 h 13.0625 c 3.07152,0 5.39104,0.53216 6.96484,1.54101 l 0.002,0.002 0.004,0.002 c 1.56024,0.96014 2.31641,2.41683 2.31641,4.54101 0,2.16863 -0.75817,3.64851 -2.31641,4.60742 -1.57435,0.96884 -3.89745,1.47852 -6.9707,1.47852 h -13.0625 z m 88.41992,4.80078 h 7.87891 v 3.49414 c -0.65628,1.65294 -1.70875,2.88732 -3.20117,3.73437 l -0.002,0.002 h -0.002 c -1.47548,0.86069 -3.15149,1.29296 -5.05664,1.29296 -1.99551,0 -3.51025,-0.4155 -4.57617,-1.20507 -1.06969,-0.79236 -1.57422,-1.80173 -1.57422,-3.15235 0,-1.18761 0.41413,-2.12986 1.2832,-2.91992 l 0.004,-0.004 0.004,-0.004 c 0.80626,-0.76961 2.55286,-1.23828 5.24219,-1.23828 z m 9.08203,7.9414 0.11328,0.40039 c -0.0277,0.07 -0.084,0.11873 -0.11328,0.1875 z"
         id="path6" /></g><g
       id="path1"
       style="opacity:1"><path
         style="baseline-shift:baseline;display:inline;overflow:visible;vector-effect:none;fill:#9d8abf;stroke-linecap:round;stroke-linejoin:round;enable-background:accumulate;stop-color:#000000;stop-opacity:1"
         d="m 530.24788,232.33953 c -5.0795,5.0795 -16.2544,17.2703 -16.2544,27.42931 0,10.15899 8.1272,15.23849 16.2544,15.23849 8.12721,0 16.2544,-5.0795 16.2544,-15.23849 0,-10.15901 -11.17489,-22.34981 -16.2544,-27.42931 z"
         id="path3" /><path
         style="baseline-shift:baseline;display:inline;overflow:visible;vector-effect:none;fill:currentColor;stroke-linecap:round;stroke-linejoin:round;enable-background:accumulate;stop-color:#000000;stop-opacity:1"
         d="m 530.24805,228.60352 a 3.7370988,3.7370988 0 0 0 -2.64258,1.09375 c -2.62783,2.62782 -6.8243,7.0713 -10.46094,12.32421 -3.63663,5.25292 -6.88867,11.29842 -6.88867,17.74805 0,6.07596 2.59376,11.10548 6.42578,14.29883 3.83203,3.19335 8.72432,4.67578 13.56641,4.67578 4.84209,0 9.73438,-1.48243 13.5664,-4.67578 3.83203,-3.19335 6.42383,-8.22287 6.42383,-14.29883 0,-6.44963 -3.25008,-12.49513 -6.88672,-17.74805 -3.63663,-5.25291 -7.8331,-9.69639 -10.46094,-12.32421 a 3.7370988,3.7370988 0 0 0 -2.64257,-1.09375 z m 0,9.20312 c 2.21333,2.3766 4.68126,5.1787 6.95898,8.46875 3.22069,4.65211 5.5586,9.78477 5.55859,13.49414 0,4.08304 -1.471,6.6705 -3.73437,8.55664 -2.26337,1.88615 -5.49808,2.94531 -8.7832,2.94531 -3.28512,0 -6.51983,-1.05916 -8.78321,-2.94531 -2.26337,-1.88614 -3.73437,-4.4736 -3.73437,-8.55664 0,-3.70937 2.3379,-8.84203 5.55859,-13.49414 2.27773,-3.29005 4.74565,-6.09215 6.95899,-8.46875 z"
         id="path4" /></g></g></svg>
